#!OML:ASF E:\Mandelcareful walks\Project 1\Capture day 1\Session 1\Subject1.ASF
:FULLY-SPECIFIED
:DEGREES
401
root 5.79582 14.9103 10.0814 44.4946 81.723 32.1144
lowerback 29.5441 -1.73702 3.4587
upperback 8.37954 -0.59979 -1.13747
thorax -6.87366 0.0102442 -3.09787
lowerneck -29.7349 9.91532 3.65627
upperneck 13.9512 17.2356 -20.0491
head 11.8313 5.87141 -4.56257
rclavicle -6.36111e-015 -1.66979e-014
rhumerus -27.6128 26.7225 -91.1331
rradius 48.9216
rwrist -65.8901
rhand 4.45628 -42.5792
rfingers 7.12502
rthumb 29.8512 -70.1933
lclavicle -6.36111e-015 -1.66979e-014
lhumerus -162.837 -96.6067 256.749
lradius 60.9231
lwrist -0.373709
lhand -24.0847 -14.0272
lfingers 7.12502
lthumb 2.39553 15.9391
rfemur -51.7561 -11.5711 9.39624
rtibia 63.9376
rfoot -20.0235 -7.85795
rtoes -10.4199
lfemur -54.1668 22.9898 -22.7244
ltibia 81.8874
lfoot -14.4885 1.80256
ltoes -6.43005
402
root 5.8637 14.9439 10.1527 49.1091 82.3625 36.5851
lowerback 29.7479 -1.87636 3.25205
upperback 8.401 -0.812177 -1.14147
thorax -6.96058 -0.0845297 -2.91066
lowerneck -29.3426 9.99813 3.67042
upperneck 13.5446 17.3133 -20.2558
head 11.6493 5.94598 -4.61954
rclavicle -3.06128e-014 -1.94809e-014
rhumerus -27.6835 27.4243 -91.1698
rradius 48.7632
rwrist -66.4648
rhand 4.15453 -42.6153
rfingers 7.12502
rthumb 29.5632 -70.2808
lclavicle -3.06128e-014 -1.94809e-014
lhumerus -164.941 -96.847 259.138
lradius 60.5628
lwrist -0.0273691
lhand -24.637 -14.5168
lfingers 7.12502
lthumb 1.86218 15.4548
rfemur -51.2538 -12.276 9.57072
rtibia 63.8002
rfoot -20.4672 -8.03897
rtoes -10.0057
lfemur -55.0554 23.3015 -22.8822
ltibia 79.6281
lfoot -15.221 3.50826
ltoes -5.65113
403
root 5.93449 14.9843 10.2083 52.6637 82.7285 39.8802
lowerback 29.941 -1.83394 3.25297
upperback 8.49449 -0.761894 -1.46035
thorax -6.94595 -0.0487314 -3.28766
lowerneck -28.8876 10.2301 4.55396
upperneck 12.7687 17.3049 -20.9581
head 11.4531 6.0093 -5.00924
rclavicle -2.78299e-015 -1.74931e-014
rhumerus -27.5595 26.9582 -91.4616
rradius 48.4141
rwrist -66.5136
rhand 5.22104 -45.3674
rfingers 7.12502
rthumb 30.5808 -72.8479
lclavicle -2.78299e-015 -1.74931e-014
lhumerus -163.551 -96.5244 257.645
lradius 60.3304
lwrist -0.466556
lhand -23.9022 -14.6461
lfingers 7.12502
lthumb 2.57184 15.3181
rfemur -50.8492 -12.6545 9.67845
rtibia 63.4903
rfoot -20.7659 -8.26543
rtoes -9.89182
lfemur -55.801 23.5266 -23.0663
ltibia 76.8257
lfoot -16.0894 4.68703
ltoes -4.82206
404
root 6.01063 15.039 10.2573 55.2348 83.0755 42.2853
lowerback 30.3533 -1.73808 2.86018
upperback 8.3645 -0.742773 -1.48215
thorax -7.28278 -0.0453402 -3.09463
lowerneck -28.004 10.421 4.98271
upperneck 12.5037 17.4557 -21.3573
head 11.3156 6.13676 -5.19895
rclavicle -4.65156e-014 -5.04913e-014
rhumerus -28.1433 26.9144 -91.848
rradius 47.4901
rwrist -65.6714
rhand 7.96374 -43.5235
rfingers 7.12502
rthumb 33.1926 -70.4829
lclavicle -4.65156e-014 -5.04913e-014
lhumerus -168.299 -96.8384 262.551
lradius 59.9817
lwrist -1.34278
lhand -25.1341 -14.3671
lfingers 7.12502
lthumb 1.38203 15.6082
rfemur -50.2307 -12.867 9.85504
rtibia 63.0476
rfoot -21.0348 -8.58361
rtoes -9.92334
lfemur -56.1245 23.7112 -23.0306
ltibia 73.6067
lfoot -16.9934 5.68261
ltoes -3.65061
405
root 6.08186 15.0885 10.2996 57.0181 83.3485 43.723
lowerback 30.613 -1.52907 2.62422
upperback 8.35236 -0.546007 -1.61315
thorax -7.40358 0.0506553 -3.17798
lowerneck -28.212 10.4209 4.90016
upperneck 12.8133 17.5267 -21.2362
head 11.4534 6.13839 -5.12896
rclavicle -6.75868e-015 -3.85642e-014
rhumerus -28.145 26.0557 -92.0027
rradius 47.1391
rwrist -65.764
rhand 7.49878 -42.6433
rfingers 7.12502
rthumb 32.7503 -69.6959
lclavicle -6.75868e-015 -3.85642e-014
lhumerus -167.628 -96.4824 261.922
lradius 59.742
lwrist -0.961806
lhand -23.6561 -14.505
lfingers 7.12502
lthumb 2.80948 15.4562
rfemur -49.924 -12.9437 10.1076
rtibia 62.5561
rfoot -21.127 -8.95107
rtoes -9.94947
lfemur -56.6693 23.9541 -23.0999
ltibia 70.1958
lfoot -17.6158 7.33861
ltoes -2.87308
406
root 6.15219 15.1251 10.3317 59.4845 83.6431 45.5339
lowerback 30.4653 -1.28777 2.30457
upperback 8.31831 -0.348232 -1.6695
thorax -7.35738 0.14466 -3.12495
lowerneck -28.4192 10.4517 4.62656
upperneck 12.9875 17.6984 -21.143
head 11.5428 6.18606 -5.01129
rclavicle 1.55052e-014 2.5842e-014
rhumerus -27.8242 25.0436 -91.9878
rradius 46.4176
rwrist -65.5917
rhand 7.07268 -40.2918
rfingers 7.12502
rthumb 32.3449 -67.428
lclavicle 1.55052e-014 2.5842e-014
lhumerus -164.57 -96.0253 258.907
lradius 59.5633
lwrist -0.469646
lhand -23.9158 -14.0438
lfingers 7.12502
lthumb 2.55872 15.9206
rfemur -50.0292 -13.0099 10.341
rtibia 62.1095
rfoot -21.1813 -9.27533
rtoes -9.40535
lfemur -57.625 23.9869 -23.3655
ltibia 66.8123
lfoot -18.0652 9.54453
ltoes -1.65529
407
root 6.2435 15.1809 10.3458 68.7979 84.3651 54.7358
lowerback 30.7133 -1.51186 2.42714
upperback 8.37762 -0.568152 -1.7033
thorax -7.42307 0.0500531 -3.15887
lowerneck -28.2855 10.6499 4.66949
upperneck 13.0353 18.0442 -21.365
head 11.6249 6.32813 -5.0227
rclavicle -9.14409e-015 -2.06736e-014
rhumerus -27.6042 24.0252 -92.0284
rradius 45.747
rwrist -65.334
rhand 6.90825 -39.0249
rfingers 7.12502
rthumb 32.1884 -66.1929
lclavicle -9.14409e-015 -2.06736e-014
lhumerus -162.11 -95.7113 256.477
lradius 59.4481
lwrist -0.19931
lhand -23.3408 -13.734
lfingers 7.12502
lthumb 3.11396 16.223
rfemur -49.0753 -13.8578 10.3697
rtibia 61.625
rfoot -21.551 -9.48668
rtoes -8.97019
lfemur -57.6741 23.2141 -23.4448
ltibia 63.4584
lfoot -18.5926 11.5795
ltoes -0.118474
408
root 6.32681 15.216 10.3486 70.6089 84.7347 56.1392
lowerback 30.6345 -1.33799 2.34688
upperback 8.34918 -0.385252 -1.79318
thorax -7.40528 0.135989 -3.2786
lowerneck -27.706 10.9219 5.05145
upperneck 12.8682 18.3788 -21.8256
head 11.6137 6.50538 -5.18205
rclavicle 1.11319e-014 2.78299e-015
rhumerus -27.7084 23.092 -92.2205
rradius 45.3716
rwrist -65.2105
rhand 6.82672 -39.3391
rfingers 7.12502
rthumb 32.1107 -66.5228
lclavicle 1.11319e-014 2.78299e-015
lhumerus -160.924 -95.4103 255.295
lradius 59.3695
lwrist 0.550918
lhand -21.8516 -13.9109
lfingers 7.12502
lthumb 4.55205 16.0201
rfemur -48.8639 -13.9986 10.645
rtibia 61.2812
rfoot -21.6453 -9.64048
rtoes -8.96105
lfemur -58.2235 23.3285 -23.6685
ltibia 60.5122
lfoot -18.7709 13.8857
ltoes -0.103193
409
root 6.40638 15.2364 10.347 74.0843 85.1766 59.1991
lowerback 30.4522 -1.22432 2.28654
upperback 8.33766 -0.274376 -1.89681
thorax -7.32466 0.189586 -3.39757
lowerneck -26.9063 11.2416 5.59835
upperneck 12.4538 18.6907 -22.3887
head 11.5015 6.70744 -5.40937
rclavicle 1.19271e-015 1.43125e-014
rhumerus -27.8343 22.2204 -92.4588
rradius 44.9935
rwrist -65.2069
rhand 6.76043 -39.7516
rfingers 7.12502
rthumb 32.0476 -66.948
lclavicle 1.19271e-015 1.43125e-014
lhumerus -159.768 -95.0731 254.095
lradius 59.2666
lwrist 1.32343
lhand -21.3213 -13.8283
lfingers 7.12502
lthumb 5.06411 16.0911
rfemur -48.6869 -14.0998 10.8723
rtibia 60.9961
rfoot -21.8399 -9.8756
rtoes -8.60059
lfemur -58.9753 23.3877 -23.9613
ltibia 57.8461
lfoot -17.8496 16.5275
ltoes -1.61595
410
root 6.47147 15.2362 10.3358 80.5148 85.5532 64.9263
lowerback 30.3163 -1.10429 2.09458
upperback 8.06085 -0.213876 -1.93397
thorax -7.57001 0.20023 -3.35048
lowerneck -26.5801 11.608 5.70616
upperneck 12.712 19.2168 -22.3348
head 11.6225 6.95225 -5.29722
rclavicle -3.97569e-016 5.36719e-015
rhumerus -28.16 21.3067 -92.6175
rradius 44.5773
rwrist -65.1537
rhand 7.145 -39.8317
rfingers 7.12502
rthumb 32.4137 -66.9538
lclavicle -3.97569e-016 5.36719e-015
lhumerus -163.315 -94.7986 257.736
lradius 59.1368
lwrist 1.59856
lhand -21.7437 -13.5401
lfingers 7.12502
lthumb 4.65625 16.3887
rfemur -49.05 -14.3661 11.0304
rtibia 60.9744
rfoot -22.0026 -10.3183
rtoes -8.68554
lfemur -59.9942 22.9924 -24.1455
ltibia 55.9074
lfoot -17.4775 17.9706
ltoes 1.39674
